<svg width="20" height="20" viewBox="0 0 20 20" fill="none" xmlns="http://www.w3.org/2000/svg">
<path d="M19.5299 18.4696L14.8358 13.7765C16.1963 12.1431 16.8748 10.048 16.73 7.92715C16.5852 5.80629 15.6283 3.82289 14.0584 2.38956C12.4885 0.956234 10.4264 0.183327 8.30115 0.231627C6.1759 0.279927 4.15108 1.14571 2.64791 2.64888C1.14474 4.15205 0.27895 6.17687 0.23065 8.30213C0.18235 10.4274 0.955257 12.4894 2.38859 14.0593C3.82191 15.6293 5.80531 16.5861 7.92618 16.7309C10.047 16.8757 12.1421 16.1973 13.7755 14.8368L18.4686 19.5308C18.5383 19.6005 18.621 19.6558 18.7121 19.6935C18.8031 19.7312 18.9007 19.7506 18.9992 19.7506C19.0978 19.7506 19.1954 19.7312 19.2864 19.6935C19.3775 19.6558 19.4602 19.6005 19.5299 19.5308C19.5995 19.4612 19.6548 19.3784 19.6925 19.2874C19.7302 19.1963 19.7497 19.0988 19.7497 19.0002C19.7497 18.9017 19.7302 18.8041 19.6925 18.713C19.6548 18.622 19.5995 18.5393 19.5299 18.4696ZM1.74924 8.50021C1.74924 7.16519 2.14512 5.86015 2.88682 4.75011C3.62852 3.64008 4.68272 2.77492 5.91612 2.26403C7.14952 1.75314 8.50672 1.61946 9.8161 1.87991C11.1255 2.14036 12.3282 2.78324 13.2722 3.72724C14.2162 4.67125 14.8591 5.87398 15.1195 7.18335C15.38 8.49273 15.2463 9.84993 14.7354 11.0833C14.2245 12.3167 13.3594 13.3709 12.2493 14.1126C11.1393 14.8543 9.83426 15.2502 8.49924 15.2502C6.70963 15.2482 4.9939 14.5364 3.72846 13.271C2.46302 12.0056 1.75122 10.2898 1.74924 8.50021Z" fill="#333333"/>
</svg>
