<svg width="48" height="48" viewBox="0 0 48 48" fill="none" xmlns="http://www.w3.org/2000/svg">
<g clip-path="url(#clip0_277_829)">
<path fill-rule="evenodd" clip-rule="evenodd" d="M32 6C34.6522 6 37.1957 7.05357 39.0711 8.92893C40.9464 10.8043 42 13.3478 42 16V32C42 34.6522 40.9464 37.1957 39.0711 39.0711C37.1957 40.9464 34.6522 42 32 42H16C13.3478 42 10.8043 40.9464 8.92893 39.0711C7.05357 37.1957 6 34.6522 6 32V16C6 13.3478 7.05357 10.8043 8.92893 8.92893C10.8043 7.05357 13.3478 6 16 6H32ZM32 10H16C14.4087 10 12.8826 10.6321 11.7574 11.7574C10.6321 12.8826 10 14.4087 10 16V32C10 33.5913 10.6321 35.1174 11.7574 36.2426C12.8826 37.3679 14.4087 38 16 38H32C33.5913 38 35.1174 37.3679 36.2426 36.2426C37.3679 35.1174 38 33.5913 38 32V16C38 14.4087 37.3679 12.8826 36.2426 11.7574C35.1174 10.6321 33.5913 10 32 10ZM24 16C26.1217 16 28.1566 16.8429 29.6569 18.3431C31.1571 19.8434 32 21.8783 32 24C32 26.1217 31.1571 28.1566 29.6569 29.6569C28.1566 31.1571 26.1217 32 24 32C21.8783 32 19.8434 31.1571 18.3431 29.6569C16.8429 28.1566 16 26.1217 16 24C16 21.8783 16.8429 19.8434 18.3431 18.3431C19.8434 16.8429 21.8783 16 24 16ZM24 20C22.9391 20 21.9217 20.4214 21.1716 21.1716C20.4214 21.9217 20 22.9391 20 24C20 25.0609 20.4214 26.0783 21.1716 26.8284C21.9217 27.5786 22.9391 28 24 28C25.0609 28 26.0783 27.5786 26.8284 26.8284C27.5786 26.0783 28 25.0609 28 24C28 22.9391 27.5786 21.9217 26.8284 21.1716C26.0783 20.4214 25.0609 20 24 20ZM33 13C33.5304 13 34.0391 13.2107 34.4142 13.5858C34.7893 13.9609 35 14.4696 35 15C35 15.5304 34.7893 16.0391 34.4142 16.4142C34.0391 16.7893 33.5304 17 33 17C32.4696 17 31.9609 16.7893 31.5858 16.4142C31.2107 16.0391 31 15.5304 31 15C31 14.4696 31.2107 13.9609 31.5858 13.5858C31.9609 13.2107 32.4696 13 33 13Z" fill="white"/>
</g>
<defs>
<clipPath id="clip0_277_829">
<rect width="48" height="48" fill="white"/>
</clipPath>
</defs>
</svg>
