<svg width="219" height="228" viewBox="0 0 219 228" fill="none" xmlns="http://www.w3.org/2000/svg">
<path d="M41 75C32.5974 80.593 27 90.5937 27 102C27 113.406 32.5974 123.407 41 129" stroke="white" stroke-width="7"/>
<path d="M64.0417 182.022C64.997 182.022 65.862 181.764 66.595 181.324L67.4664 182.689L141.852 135.211L141.616 134.841C141.951 134.912 142.302 134.949 142.667 134.949H151.5V193.942C151.5 197.944 154.625 201.5 158.854 201.5H175.042C179.271 201.5 182.396 197.944 182.396 193.942V134.949H190.458C193.411 134.949 195.5 132.483 195.5 129.826V79.5072C195.5 76.8499 193.411 74.3841 190.458 74.3841H142.667C142.463 74.3841 142.263 74.3958 142.068 74.4186L68.6366 27.0587L67.8539 28.2722C66.9562 27.2072 65.6226 26.5 64.0417 26.5H45.5417C42.5895 26.5 40.5 28.9659 40.5 31.6232V176.899C40.5 179.556 42.5895 182.022 45.5417 182.022H64.0417ZM137.625 129.605L69.0833 173.353V35.6764L137.625 79.8829V129.605Z" stroke="white" stroke-width="7"/>
</svg>
