<svg width="219" height="228" viewBox="0 0 219 228" fill="none" xmlns="http://www.w3.org/2000/svg">
<circle cx="79.1004" cy="67.348" r="23.848" stroke="white" stroke-width="7"/>
<circle cx="145.901" cy="74.0732" r="21.6064" stroke="white" stroke-width="7"/>
<path d="M64.3056 98.7305C38.1232 101.6 25.301 121.745 22.1627 131.458L10 183.465C10.6171 184.66 15.9944 187.051 32.5671 187.051C37.481 167.577 41.3612 154.863 40.9925 164.635C40.2752 183.644 43.0847 187.499 44.5791 187.051H105.552C109.856 187.051 111.828 153.875 112.277 137.287C143.48 141.232 174.893 128.768 186.699 122.044C199.252 111.284 189 101.181 178.629 102.317C152.447 105.186 91.5042 101.122 64.3056 98.7305Z" stroke="white" stroke-width="7"/>
<path d="M190.286 126.527C198.057 143.414 212.792 178.444 209.564 183.465C207.053 186.693 189.551 187.5 181.114 187.5C176.708 176.276 173.403 169.441 173.249 173.602C172.891 183.286 171.904 186.902 171.456 187.5H115.074C115.052 186.599 115.032 185.702 115.014 184.81C114.535 160.426 115.789 139.997 121.243 142.219C130.927 146.164 171.307 133.402 190.286 126.527Z" stroke="white" stroke-width="7"/>
</svg>
