<svg width="219" height="228" viewBox="0 0 219 228" fill="none" xmlns="http://www.w3.org/2000/svg">
<g clip-path="url(#clip0_126_8)">
<rect x="35.7612" y="100.102" width="23.2242" height="38.4227" rx="11.6121" transform="rotate(35.7587 35.7612 100.102)" stroke="white" stroke-width="7"/>
<rect x="94.3885" y="145.444" width="23.2242" height="38.4227" rx="11.6121" transform="rotate(35.7587 94.3885 145.444)" stroke="white" stroke-width="7"/>
<rect x="59.7778" y="108.757" width="23.2242" height="47.2856" rx="11.6121" transform="rotate(35.7587 59.7778 108.757)" stroke="white" stroke-width="7"/>
<rect x="79.6152" y="123.6" width="23.2242" height="47.2856" rx="11.6121" transform="rotate(35.7587 79.6152 123.6)" stroke="white" stroke-width="7"/>
<path d="M146.922 173.816C149.273 191.443 136.472 193.247 129.367 191.906C129.071 191.85 128.799 191.721 128.562 191.537L104.422 172.806M146.922 173.816L128.922 159.816M146.922 173.816C154.922 176.782 168.422 184.816 170.422 162.316M151.922 121.316L185.422 145.31M185.422 145.31L188.423 147.458C188.748 147.692 189.148 147.824 189.549 147.825C204.457 147.849 204.251 135.006 202.119 127.937C201.997 127.531 201.737 127.184 201.392 126.938L181.567 112.816M185.422 145.31C186.089 152.312 184.022 165.516 170.422 162.316M170.422 162.316L141.422 141.816M181.567 112.816L129.751 75.9063C129.23 75.5356 128.566 75.4414 127.951 75.6145C121.357 77.4699 113.474 76.4231 109.63 75.4976C109.171 75.3869 108.687 75.4259 108.259 75.6254L80.1068 88.7306C79.9842 88.7877 79.8505 88.8336 79.7189 88.8643C55.5583 94.5077 50.4285 79.4941 50.8488 70.3566C50.8788 69.7023 51.263 69.1253 51.8343 68.8048L67.4224 60.0592M181.567 112.816L207.555 99.2883C208.571 98.7598 208.936 97.4884 208.356 96.5014L173.317 36.8397C172.806 35.9696 171.727 35.6164 170.8 36.0161L147.602 46.0234C147.163 46.2125 146.672 46.2385 146.216 46.0969L112.346 35.5717C111.821 35.4087 111.253 35.4687 110.774 35.7374L67.4224 60.0592M67.4224 60.0592L42.5609 47.1661C41.6355 46.6862 40.4967 46.9976 39.9442 47.8816L9.38011 96.7841C8.8362 97.6543 9.03924 98.795 9.85005 99.4242L26.4224 112.283" stroke="white" stroke-width="7" stroke-linecap="round"/>
</g>
<defs>
<clipPath id="clip0_126_8">
<rect width="219" height="228" fill="white"/>
</clipPath>
</defs>
</svg>
