<svg width="219" height="228" viewBox="0 0 219 228" fill="none" xmlns="http://www.w3.org/2000/svg">
<path d="M172.596 205.343C174.158 206.906 176.691 206.906 178.253 205.343C179.815 203.781 179.815 201.249 178.253 199.687L172.596 205.343ZM173.545 169.001C171.206 172.343 167.911 178.068 166.652 184.559C165.365 191.191 166.184 198.931 172.596 205.343L178.253 199.687C174.227 195.661 173.571 190.897 174.505 186.083C175.467 181.126 178.089 176.46 180.099 173.589L173.545 169.001Z" fill="white"/>
<path d="M176.356 203.446H91.0834M47.2822 173.158V173.158C42.6499 173.158 38.8947 169.403 38.8947 164.771V150.326M47.2822 173.158H169.833H172.414C177.937 173.158 182.414 168.681 182.414 163.158V21C182.414 15.4772 177.937 11 172.414 11H48.8947C43.3718 11 38.8947 15.4771 38.8947 21V36.6285M47.2822 173.158C43.1347 176.491 40.4697 179.695 38.8947 182.69M38.8947 150.326V104.194V48.2777M38.8947 150.326V182.69M38.8947 182.69C32.5422 194.769 43.9216 203.446 47.2822 203.446H58.9314" stroke="white" stroke-width="6" stroke-linecap="round"/>
<path d="M180.55 79.9652L170.765 70.1983M99.471 43.4929C82.7447 52.575 51.9843 75.5555 58.6721 96.6614C59.0142 97.7408 60.2467 98.2017 61.27 97.717L91.0894 83.592C92.5981 82.8774 94.239 84.2065 93.7776 85.8109C91.3327 94.3128 86.3489 106.747 79.3793 111.922C78.1968 112.8 78.0328 114.511 79.4136 115.023C84.2782 116.828 94.5296 117.926 111.586 113.515C116.921 112.135 130.549 141.007 133.953 147.997M99.471 43.4929L106.712 27.5119C107.275 26.2673 108.893 25.942 109.894 26.872L121.838 37.9672M99.471 43.4929C107.235 39.1718 114.845 37.6713 121.838 37.9672M147.932 172.694L139.545 156.851M121.838 37.9672L129.051 27.915C129.967 26.6381 131.931 26.8684 132.527 28.3226L138.147 42.0351M121.838 37.9672C127.825 38.2206 133.358 39.7909 138.147 42.0351M138.147 42.0351C141.918 43.803 145.228 45.9891 147.932 48.2791L154.456 54.5417M138.147 42.0351L151.405 33.8526C152.738 33.0303 154.456 33.9888 154.456 35.5546V54.5417M154.456 54.5417L168.048 49.3224C169.358 48.8194 170.765 49.7864 170.765 51.1895V70.1983M154.456 54.5417L170.765 70.1983M170.765 70.1983L180.55 65.0541" stroke="white" stroke-width="6" stroke-linecap="round"/>
<circle cx="98.539" cy="65.9859" r="4.65972" fill="white"/>
<path d="M65.9209 97.3112C66.874 99.6987 69.341 101.4 72.2341 101.4C75.9532 101.4 78.9681 98.5888 78.9681 95.1217C78.9681 94.0182 78.6627 92.9811 78.1264 92.0801" stroke="white" stroke-width="4"/>
<path d="M57.5334 185.273H111.12M60.3293 185.273V214.539C60.3293 216.001 61.9353 216.894 63.1769 216.122L75.2843 208.599C75.926 208.2 76.745 208.229 77.3579 208.67L87.1978 215.763C88.4306 216.651 90.1515 215.77 90.1515 214.25V185.273" stroke="white" stroke-width="6" stroke-linecap="round"/>
</svg>
