<svg width="219" height="228" viewBox="0 0 219 228" fill="none" xmlns="http://www.w3.org/2000/svg">
<path d="M62.2805 45.1959C69.449 50.2044 71.5166 60.2971 66.508 67.4656C63.1318 72.298 57.4019 74.568 51.8299 74.0001M62.4148 45.0037L72.8976 30L212.193 127.324L201.71 142.327M201.259 142.298C199.014 140.73 196.472 139.802 193.886 139.489M183.122 168.258C178.671 165.148 176.186 160.078 176.141 154.965M182.9 168.575L178.586 174.75" stroke="#6892FF" stroke-width="6" stroke-linecap="round"/>
<path d="M108.424 61.418L85.547 94.1608" stroke="#6892FF" stroke-width="6" stroke-dasharray="8 8"/>
<path d="M111.299 57.3008L106.212 64.5821" stroke="#6892FF" stroke-width="6"/>
<path d="M14.7175 121.463C22.9381 124.446 32.3831 120.331 35.3656 112.11C38.3482 103.89 33.7389 94.6761 25.5183 91.6936M25.5982 91.4732L31.8407 74.2676L191.579 132.223L185.336 149.428M14.5536 121.915L8.1317 139.615L167.375 197.802L173.961 179.65M184.893 149.517C176.673 146.535 167.228 150.649 164.245 158.87C161.263 167.09 165.872 176.304 174.093 179.286" stroke="#6892FF" stroke-width="6" stroke-linecap="round"/>
<path d="M74.2877 95.4199L54.2668 150.602" stroke="#6892FF" stroke-width="6" stroke-dasharray="8 8"/>
<path d="M76 90.6992L72.9706 99.0492M55.584 146.971L52.4228 155.684" stroke="#6892FF" stroke-width="6"/>
<path fill-rule="evenodd" clip-rule="evenodd" d="M115.204 121.889C107.751 123.011 93.5151 127.264 91.9251 135.636C91.7138 136.748 92.7304 137.612 93.8577 137.505L103.868 136.558C105.53 136.401 106.588 138.195 105.523 139.481C103.806 141.554 101.613 143.751 99.4038 144.979C98.1163 145.694 97.5258 147.254 98.8126 147.97C100.911 149.138 104.464 150.361 110.025 150.891C111.788 151.059 112.922 159.013 113.501 164.075C113.675 165.599 115.413 166.381 116.66 165.487L140.294 148.536C141.077 147.974 141.348 146.934 140.939 146.062L139.212 142.377L141.319 136.571C141.797 135.252 140.804 133.863 139.401 133.889L135.07 133.97L137.039 128.543C137.573 127.071 136.285 125.584 134.752 125.902L130.483 126.79L130.318 122.764C130.253 121.194 128.486 120.308 127.19 121.195L124.702 122.898L122.359 118.333C121.735 117.118 120.103 116.872 119.149 117.849L115.204 121.889ZM111.002 132.342C112.004 132.706 113.112 132.188 113.476 131.185C113.84 130.182 113.322 129.074 112.319 128.71C111.316 128.346 110.208 128.864 109.844 129.867C109.481 130.87 109.999 131.978 111.002 132.342Z" fill="#6892FF"/>
<path d="M94.3793 136.201C94.4132 137.266 95.1341 138.278 96.2616 138.687C97.7109 139.212 99.2833 138.543 99.7735 137.192C99.9296 136.762 99.9572 136.315 99.8755 135.888" stroke="#6892FF" stroke-width="2"/>
</svg>
