<svg id="h1_f_logo" data-name="h1 f logo" xmlns="http://www.w3.org/2000/svg" viewBox="0 0 55.95 56.46">
  <defs>
    <style>.cls-1{fill:#656263;}</style>
  </defs>

  <path id="패스_2677" data-name="패스 2677" class="cls-1" d="M40.74,7.14l.81.4,1-1.81-.92-.46a26.22,26.22,0,0,0-9.93-2.65l-1-.07v2.1l.9.06A24.14,24.14,0,0,1,40.74,7.14Z" transform="translate(-1.67 -2.55)"/>

  <path id="패스_2682" data-name="패스 2682" class="cls-1" d="M37.48,12.83l.8.37,1-1.82-1-.44a20,20,0,0,0-6.61-1.75l-1-.09v2.1l.87.08A17.71,17.71,0,0,1,37.48,12.83Z" transform="translate(-1.67 -2.55)"/>

  <path class="cls-1" d="M51.87,18.23A24.15,24.15,0,0,1,54.38,28.4h2.09a26,26,0,0,0-2.74-11.11l-.45-.91-1.81,1ZM47.92,28.4H50a20,20,0,0,0-1.91-7.83l-.45-.94-1.81,1,.38.8A17.9,17.9,0,0,1,47.92,28.4Zm-6.45,0h2.1a13.53,13.53,0,0,0-1-4.56l-.43-1-1.83,1.05.33.78A11.48,11.48,0,0,1,41.47,28.4Z" transform="translate(-1.67 -2.55)"/>

  <path class="cls-1" d="M8.12,18.24l.4-.81L6.7,16.38l-.45.92A26.08,26.08,0,0,0,3.52,28.4H5.61A23.92,23.92,0,0,1,8.12,18.24Zm3.77,2.34A19.64,19.64,0,0,0,10,28.4h2.09a17.84,17.84,0,0,1,1.69-6.92l.38-.8-1.82-1.05Zm7.5,4.1.33-.78-1.83-1-.42,1a13.41,13.41,0,0,0-1,4.55h2.1A11.34,11.34,0,0,1,19.39,24.68Z" transform="translate(-1.67 -2.55)"/>

  <path class="cls-1" d="M50.24,15.43l.5.75,1.82-1L52,14.28A26.41,26.41,0,0,0,44.69,7l-.85-.57L42.79,8.26l.75.5A24.17,24.17,0,0,1,50.24,15.43Zm-5.13,4,1.81-1.05-.61-.86a20.13,20.13,0,0,0-4.88-4.82l-.86-.6-1,1.82.72.5a17.44,17.44,0,0,1,2.43,2,18.14,18.14,0,0,1,1.92,2.27Zm-6.88-1.1-.87-.66-1,1.82L37,20a12.11,12.11,0,0,1,1.15,1c.31.32.6.65.88,1l.52.65,1.82-1-.68-.87A13.52,13.52,0,0,0,38.23,18.33Z" transform="translate(-1.67 -2.55)"/>

  <path class="cls-1" d="M9.74,15.44a24.48,24.48,0,0,1,6.7-6.68l.75-.5L16.14,6.44,15.29,7A26.69,26.69,0,0,0,8,14.28l-.58.86,1.82,1.05Zm5.64,3.29a19.07,19.07,0,0,1,1.93-2.28,19.56,19.56,0,0,1,2.42-2l.73-.5L19.41,12.1l-.86.6a20.17,20.17,0,0,0-4.88,4.83l-.61.86,1.82,1.05ZM21,22a11.42,11.42,0,0,1,2-2l.67-.51-1.06-1.83-.86.67a13.2,13.2,0,0,0-2.44,2.4l-.69.87,1.83,1.06Z" transform="translate(-1.67 -2.55)"/>

  <path id="패스_2691" data-name="패스 2691" class="cls-1" d="M34.28,18.47l.78.31,1-1.83-1-.41a13.43,13.43,0,0,0-3.29-.87l-1.08-.14v2.1l.83.11A11.37,11.37,0,0,1,34.28,18.47Z" transform="translate(-1.67 -2.55)"/>
  
  <path class="cls-1" d="M19.25,7.14a24.14,24.14,0,0,1,9.13-2.43l.9-.06V2.55l-1,.07a26.22,26.22,0,0,0-9.93,2.65l-.92.45,1,1.82Zm10,2-1,.09a19.91,19.91,0,0,0-6.61,1.75l-1,.44,1.05,1.82.8-.37a18,18,0,0,1,5.89-1.56l.88-.08ZM24.9,16.54l-1,.41,1.06,1.83.77-.31a11.32,11.32,0,0,1,2.74-.73l.83-.11v-2.1l-1.08.14A13.31,13.31,0,0,0,24.9,16.54Z" transform="translate(-1.67 -2.55)"/>
  
  <path id="패스_2693" data-name="패스 2693" class="cls-1" d="M14.34,51.41V50.34c0-.22-.1-.32-.3-.32H12.23a21.14,21.14,0,0,0,.33-3.89c0-.75-.31-1-1-1H3.9c-.18,0-.29,0-.29.25v1.16c0,.25.11.27.29.27h6.37c.35,0,.38.11.38.41A26.92,26.92,0,0,1,10.37,50H2c-.27,0-.28.08-.28.32v1.07c0,.22.05.3.28.3H7v1.88H3.62c-.15,0-.28,0-.28.27V55c0,.22.13.25.28.25h6.62c.13,0,.2.07.2.22v3.22a.27.27,0,0,0,.31.3h1.38q.27,0,.27-.3v-4c0-.84-.17-1.11-1-1.11H9V51.7H14C14.22,51.7,14.34,51.65,14.34,51.41Z" transform="translate(-1.67 -2.55)"/>

  <path id="패스_2694" data-name="패스 2694" class="cls-1" d="M25.54,52.46H27c.18,0,.27-.09.27-.28v-7.1c0-.16,0-.28-.26-.28h-1.4c-.16,0-.3,0-.3.28v7.11a.24.24,0,0,0,.2.27Z" transform="translate(-1.67 -2.55)"/>
  
  <path class="cls-1" d="M27,53.26H25.53c-.19,0-.27.09-.27.28v1H20.88V53.6c0-.22-.08-.27-.3-.27h-1.4a.23.23,0,0,0-.26.2.09.09,0,0,0,0,.07v4.09c0,.89.21,1.07,1.1,1.07h6.1c.9,0,1.09-.25,1.09-1v-4.2C27.21,53.32,27.12,53.26,27,53.26Zm-1.84,3.82H21c-.1,0-.14,0-.14-.15V56h4.38v.92C25.26,57,25.22,57.08,25.12,57.08Z" transform="translate(-1.67 -2.55)"/>

  <path id="패스_2696" data-name="패스 2696" class="cls-1" d="M21,47.91H17.93c-.61,0-.82.18-.82.82v2.5a1.06,1.06,0,0,0,.22.8,1.16,1.16,0,0,0,.81.22A29.3,29.3,0,0,0,22.63,52c.55-.07,1.08-.16,1.55-.26.21,0,.26-.07.22-.3l-.15-1c-.05-.17-.05-.24-.26-.19a22.81,22.81,0,0,1-4.74.38c-.14,0-.21-.07-.21-.19v-.83c0-.12.05-.18.18-.18h3c.67,0,.95-.21.95-1V46.27c0-.77-.14-1-1-1H17.45c-.22,0-.29,0-.29.26v1.08a.27.27,0,0,0,.22.29H21c.17,0,.19,0,.19.2v.62C21.18,47.88,21.16,47.91,21,47.91Z" transform="translate(-1.67 -2.55)"/>

  <path class="cls-1" d="M42.9,51.66V50.59a.27.27,0,0,0-.3-.31H40.79a23.32,23.32,0,0,0,.35-4c0-.75-.31-1-1-1H32.48c-.18,0-.3,0-.3.25v1.16c0,.25.11.26.3.26h6.36c.36,0,.38.12.38.42a24,24,0,0,1-.3,2.93h-8.4c-.22,0-.28.08-.28.31v1.07c0,.22,0,.31.28.31H42.6C42.8,52,42.9,51.87,42.9,51.66ZM39.32,59H40.7c.19,0,.27-.1.27-.3V54.49c0-.84-.17-1.11-1-1.11H32.2c-.15,0-.28,0-.28.27v1.17c0,.22.13.25.28.25h6.62c.12,0,.2.07.2.22v3.42a.26.26,0,0,0,.23.3Z" transform="translate(-1.67 -2.55)"/>

  <path class="cls-1" d="M56,58.51V57.35c0-.22-.14-.27-.3-.27H49.18c-.16,0-.23-.07-.23-.22v-2.4c0-.21-.1-.31-.28-.31H47.29c-.2,0-.3.1-.3.31v3.25c0,.83.18,1.06,1,1.06h7.68C55.81,58.77,56,58.79,56,58.51ZM57.12,49H55.37V45.08c0-.19-.08-.28-.25-.28H53.69a.25.25,0,0,0-.28.21v9.48c0,.22.07.28.28.28h1.43c.21,0,.25-.06.25-.28V50.71h1.75c.16,0,.28,0,.28-.27V49.27C57.4,49,57.27,49,57.12,49Zm-9.4-1.67H51.4c.19,0,.29-.09.29-.25V45.93c0-.17-.1-.26-.29-.26H46.53c-.77,0-1,.12-1,.92v5.22a1.55,1.55,0,0,0,0,.22c.06.64.38.77,1,.79a28.93,28.93,0,0,0,6-.52c.18,0,.23-.09.22-.27a.38.38,0,0,0,0-.1l-.15-1c0-.16-.07-.25-.35-.19a25.74,25.74,0,0,1-4.55.4c-.16,0-.23-.08-.23-.24V47.56C47.52,47.44,47.53,47.35,47.72,47.35Z" transform="translate(-1.67 -2.55)"/>

  <rect id="사각형_889" data-name="사각형 889" class="cls-1" x="0.76" y="33.4" width="55.19" height="0.48"/>
  
</svg>