<svg width="49" height="48" viewBox="0 0 49 48" fill="none" xmlns="http://www.w3.org/2000/svg">
<path fill-rule="evenodd" clip-rule="evenodd" d="M36.151 9.62451H12.6894C9.36872 9.62451 6.66425 12.285 6.66425 15.5267V29.8127C6.66425 33.0656 9.38013 35.7149 12.6894 35.7149H20.974L22.4004 38.1294L23.804 40.5104C24.055 40.9464 24.6941 40.9464 24.9565 40.5104L26.3601 38.1294L27.7865 35.7149H36.1624C39.4831 35.7149 42.1875 33.0544 42.1875 29.8127V15.5379C42.1875 12.285 39.4717 9.62451 36.151 9.62451ZM26.0633 20.0875C24.2489 20.0875 22.7769 21.5071 22.7769 23.2621C22.7769 25.0172 24.2489 26.4368 26.0633 26.4368C27.8777 26.4368 29.3497 25.0172 29.3497 23.2621C29.3497 21.5071 27.8891 20.0875 26.0633 20.0875ZM26.0633 24.7824C25.196 24.7824 24.4885 24.1005 24.4885 23.2621C24.4885 22.4238 25.196 21.7419 26.0633 21.7419C26.9306 21.7419 27.6381 22.4238 27.6381 23.2621C27.6381 24.1005 26.942 24.7824 26.0633 24.7824ZM13.7848 20.8141C14.2983 20.3558 14.9602 20.0875 15.6677 20.0875C17.3109 20.0875 18.6232 21.5183 18.6232 23.2733C18.6232 25.0283 17.2995 26.448 15.6677 26.448C14.9488 26.448 14.2983 26.1685 13.7848 25.7214V26.2915H11.959V18.1872H13.7848V20.8141ZM13.7962 23.8882C14.0473 24.4583 14.6293 24.8495 15.3025 24.8495C16.2154 24.8495 16.9457 24.1453 16.9457 23.2622C16.9457 22.3791 16.2154 21.6748 15.3025 21.6748C14.6293 21.6748 14.0473 22.0661 13.7962 22.6362C13.7049 22.8262 13.6593 23.0386 13.6593 23.2622C13.6593 23.4857 13.7164 23.6981 13.7962 23.8882ZM35.044 20.2217V20.7247C34.5305 20.3334 33.8915 20.0987 33.2068 20.0987C31.5294 20.0987 30.1714 21.4736 30.1714 23.1616C30.1714 24.8495 31.5294 26.2245 33.2068 26.2245C33.9029 26.2245 34.5419 25.9897 35.044 25.5985V26.448C35.044 26.448 34.8615 27.2864 33.5834 27.2864V28.8626C33.5834 28.8626 34.9642 29.0191 36.1966 27.8118C36.1966 27.8118 36.7671 27.2193 36.8927 26.4368V20.2217H35.044ZM33.5492 24.7154C32.6249 24.7154 31.8831 24.0111 31.8831 23.1504C31.8831 22.2897 32.6363 21.5854 33.5492 21.5854C34.1996 21.5854 34.7702 21.9431 35.044 22.4573C35.1582 22.6697 35.2152 22.9045 35.2152 23.1504C35.2152 23.3963 35.1467 23.6422 35.044 23.8435C34.7702 24.3688 34.1996 24.7154 33.5492 24.7154ZM18.8287 19.6515V18.0307C18.8287 18.0307 20.0383 17.8742 21.1109 19.115C21.1109 19.115 21.6016 19.7186 21.7157 20.5235V20.5682V26.2915H19.8328V20.5682C19.6731 19.7633 18.8287 19.6515 18.8287 19.6515Z" fill="white"/>
</svg>
