<svg width="45" height="45" viewBox="0 0 45 45" fill="none" xmlns="http://www.w3.org/2000/svg">
<path d="M42.525 0H2.475C1.81859 0 1.18906 0.260758 0.724911 0.724911C0.260758 1.18906 0 1.81859 0 2.475V42.525C0 43.1814 0.260758 43.8109 0.724911 44.2751C1.18906 44.7392 1.81859 45 2.475 45H24.03V27.5625H18.18V20.8125H24.03V15.75C23.9088 14.5615 24.0491 13.3608 24.4411 12.2322C24.8331 11.1036 25.4672 10.0745 26.299 9.21693C27.1309 8.35937 28.1402 7.69419 29.2564 7.26804C30.3725 6.84188 31.5683 6.66507 32.76 6.75C34.5112 6.73922 36.2616 6.82937 38.0025 7.02V13.095H34.425C31.59 13.095 31.05 14.445 31.05 16.4025V20.745H37.8L36.9225 27.495H31.05V45H42.525C42.85 45 43.1719 44.936 43.4721 44.8116C43.7724 44.6872 44.0453 44.5049 44.2751 44.2751C44.5049 44.0453 44.6872 43.7724 44.8116 43.4721C44.936 43.1719 45 42.85 45 42.525V2.475C45 2.14998 44.936 1.82814 44.8116 1.52786C44.6872 1.22758 44.5049 0.954736 44.2751 0.724911C44.0453 0.495086 43.7724 0.312779 43.4721 0.188398C43.1719 0.064018 42.85 0 42.525 0Z" fill="white"/>
</svg>
