<svg width="24" height="26" viewBox="0 0 24 26" fill="none" xmlns="http://www.w3.org/2000/svg">
<path d="M23.125 0.350103C22.8571 0.166076 22.5482 0.0503904 22.2253 0.0131331C21.9024 -0.0241241 21.5753 0.0181788 21.2725 0.136353C19.5187 0.818853 15.9775 1.96385 12 1.96385C8.0225 1.96385 4.48 0.818853 2.72375 0.136353C2.42073 0.0187253 2.09361 -0.023273 1.7707 0.0139938C1.44779 0.0512607 1.13884 0.166669 0.870578 0.350228C0.602318 0.533787 0.382841 0.779965 0.231147 1.06745C0.0794529 1.35493 0.000114288 1.67505 0 2.0001V8.97135C0 13.4514 1.20625 17.6776 3.3975 20.8689C5.6675 24.1764 8.7225 25.9939 12 25.9939C15.2775 25.9939 18.3325 24.1726 20.6025 20.8689C22.7938 17.6801 24 13.4539 24 8.97385V2.0001C23.9994 1.67464 23.9194 1.35423 23.7669 1.06669C23.6144 0.779157 23.3941 0.533177 23.125 0.350103ZM22 8.9751C22 13.0551 20.9175 16.8789 18.9538 19.7414C17.0675 22.4876 14.5988 24.0001 12 24.0001C9.40125 24.0001 6.9325 22.4876 5.04625 19.7401C3.0825 16.8751 2 13.0539 2 8.97385V2.0001C3.88875 2.73385 7.6975 3.96385 12 3.96385C16.3025 3.96385 20.1125 2.73385 22 2.0001V8.97635V8.9751ZM19.75 11.3339C19.9267 11.5328 20.0171 11.7937 20.0014 12.0593C19.9857 12.3249 19.8652 12.5734 19.6663 12.7501C19.4673 12.9268 19.2064 13.0172 18.9408 13.0015C18.6752 12.9858 18.4267 12.8653 18.25 12.6664C17.915 12.2914 17.1437 12.0001 16.5 12.0001C15.8562 12.0001 15.08 12.2926 14.75 12.6664C14.5731 12.8653 14.3245 12.9858 14.0588 13.0014C13.7931 13.0169 13.532 12.9263 13.3331 12.7495C13.1342 12.5726 13.0137 12.324 12.9981 12.0583C12.9825 11.7925 13.0731 11.5315 13.25 11.3326C13.9637 10.5351 15.2675 10.0001 16.5 10.0001C17.7325 10.0001 19.0312 10.5351 19.75 11.3326V11.3339ZM7.5 12.0001C6.85125 12.0001 6.08 12.2926 5.75 12.6664C5.57313 12.8653 5.32449 12.9858 5.05878 13.0014C4.79306 13.0169 4.53204 12.9263 4.33313 12.7495C4.13421 12.5726 4.01371 12.324 3.99812 12.0583C3.98253 11.7925 4.07313 11.5315 4.25 11.3326C4.96875 10.5351 6.2725 10.0001 7.5 10.0001C8.7275 10.0001 10.0312 10.5351 10.75 11.3326C10.9269 11.5315 11.0175 11.7925 11.0019 12.0583C10.9863 12.324 10.8658 12.5726 10.6669 12.7495C10.5684 12.8371 10.4536 12.9044 10.3291 12.9476C10.2046 12.9908 10.0728 13.0091 9.94122 13.0014C9.67551 12.9858 9.42687 12.8653 9.25 12.6664C8.92 12.2926 8.14875 12.0001 7.5 12.0001ZM17.0562 17.6489C16.4355 18.3853 15.6614 18.9773 14.7881 19.3834C13.9147 19.7895 12.9632 20 12 20C11.0368 20 10.0853 19.7895 9.21193 19.3834C8.33856 18.9773 7.56446 18.3853 6.94375 17.6489C6.85847 17.549 6.7937 17.4333 6.75314 17.3083C6.71258 17.1834 6.69702 17.0517 6.70735 16.9208C6.71769 16.7899 6.7537 16.6623 6.81335 16.5453C6.873 16.4282 6.95511 16.3241 7.055 16.2389C7.15489 16.1536 7.27059 16.0888 7.39551 16.0482C7.52043 16.0077 7.65211 15.9921 7.78304 16.0025C7.91397 16.0128 8.04158 16.0488 8.1586 16.1085C8.27561 16.1681 8.37972 16.2502 8.465 16.3501C8.89781 16.8668 9.43863 17.2824 10.0494 17.5675C10.6601 17.8526 11.326 18.0004 12 18.0004C12.674 18.0004 13.3399 17.8526 13.9506 17.5675C14.5614 17.2824 15.1022 16.8668 15.535 16.3501C15.6203 16.2502 15.7244 16.1681 15.8414 16.1085C15.9584 16.0488 16.086 16.0128 16.217 16.0025C16.3479 15.9921 16.4796 16.0077 16.6045 16.0482C16.7294 16.0888 16.8451 16.1536 16.945 16.2389C17.0449 16.3241 17.127 16.4282 17.1866 16.5453C17.2463 16.6623 17.2823 16.7899 17.2926 16.9208C17.303 17.0517 17.2874 17.1834 17.2469 17.3083C17.2063 17.4333 17.1415 17.549 17.0562 17.6489Z" fill="white"/>
</svg>
