<svg width="67" height="76" viewBox="0 0 67 76" fill="none" xmlns="http://www.w3.org/2000/svg">
<path d="M32.1428 45.3456C34.9057 39.4333 34.1409 31.9811 32.391 24.9042M32.391 24.9042C31.8474 28.1442 30.3705 31.7911 29.1961 31.0263M32.391 24.9042C33.021 27.0374 36.5844 29.5512 37.3533 29.6336" stroke="white"/>
<path d="M30.1627 3.77393L31.8111 3.70082L34.5584 3.57899L34.5765 3.98858L31.8292 4.11042L32.2182 12.8818L30.5699 12.9549L30.1809 4.18352L27.4336 4.30536L27.4154 3.89576L30.1627 3.77393Z" fill="white"/>
<path d="M38.3935 13.7919C38.3557 13.7789 38.299 13.7594 38.2234 13.7333C38.1477 13.7073 38.0114 13.6321 37.8145 13.5079C37.6216 13.3922 37.4438 13.2534 37.281 13.0915C37.1222 12.9382 36.96 12.7131 36.7943 12.4163C36.6327 12.128 36.5178 11.8064 36.4496 11.4515C36.3815 11.0966 36.3721 10.6528 36.4217 10.1199C36.4775 9.58912 36.6129 9.01173 36.8278 8.38769C36.9949 7.90232 37.1837 7.46672 37.3941 7.08087C37.6045 6.69502 37.8174 6.38405 38.0326 6.14794C38.2501 5.90552 38.4735 5.6969 38.7029 5.52207C38.9323 5.34724 39.1549 5.22294 39.3707 5.14917C39.5865 5.0754 39.7957 5.02055 39.9985 4.9846C40.2034 4.94235 40.388 4.92836 40.5523 4.94263C40.7229 4.95908 40.8682 4.97738 40.9882 4.99754C41.1145 5.01987 41.2123 5.04297 41.2816 5.06685L41.3856 5.10266C41.4298 5.11785 41.4865 5.13739 41.5558 5.16126C41.6315 5.18731 41.7678 5.26245 41.9647 5.38667C42.1638 5.5046 42.3417 5.64339 42.4982 5.80306C42.6632 5.95859 42.8255 6.18367 42.9849 6.4783C43.1528 6.76879 43.2708 7.09147 43.339 7.44634C43.4072 7.80121 43.4134 8.24401 43.3575 8.77474C43.308 9.30765 43.1769 9.88297 42.9641 10.5007C42.2848 12.4737 41.2796 13.6012 39.9486 13.8832C39.3803 13.9978 38.862 13.9673 38.3935 13.7919ZM41.2456 5.50923C41.21 5.4899 41.1564 5.47146 41.0849 5.45388C41.0197 5.43848 40.8792 5.46766 40.6634 5.54143C40.4561 5.61107 40.244 5.74601 40.0269 5.94626C39.8184 6.14238 39.565 6.49934 39.2669 7.01714C38.9709 7.52864 38.6905 8.1689 38.4257 8.93792C37.7333 10.9487 37.626 12.3149 38.1037 13.0364C38.2388 13.238 38.3821 13.3544 38.5335 13.3854C38.5755 13.4069 38.6302 13.4222 38.6975 13.4313C38.769 13.4488 38.9085 13.4228 39.1158 13.3532C39.3294 13.2857 39.5415 13.1508 39.7522 12.9483C39.9671 12.7544 40.2225 12.4017 40.5185 11.8902C40.8167 11.3724 41.0982 10.729 41.363 9.95993C41.6299 9.18461 41.8085 8.50223 41.8987 7.9128C41.9888 7.32337 42.0026 6.88393 41.9401 6.59448C41.8776 6.30503 41.7956 6.07231 41.694 5.89631C41.5946 5.71402 41.4956 5.60236 41.3969 5.56132L41.2456 5.50923Z" fill="white"/>
<path d="M52.8043 12.4986C52.8678 12.8849 52.8548 13.2668 52.7651 13.6442C52.6766 14.0309 52.508 14.385 52.2591 14.7067C52.0143 15.0231 51.7139 15.2752 51.3577 15.4633C51.0149 15.6448 50.6506 15.7507 50.2648 15.7809C49.4569 15.8555 48.7208 15.6357 48.0564 15.1217L46.6881 14.0631L44.6137 16.7443L43.3166 15.7408L48.9402 8.47223L49.826 9.15759L49.8321 9.14968L51.6117 10.5265C52.2761 11.0405 52.6736 11.6979 52.8043 12.4986ZM48.3073 14.7975C48.3231 14.8097 48.3442 14.826 48.3706 14.8464C48.4022 14.8709 48.4631 14.9011 48.5532 14.9372C48.6486 14.9773 48.7496 15.0048 48.856 15.0197C48.9625 15.0346 49.0946 15.0273 49.2524 14.9976C49.4155 14.9721 49.5796 14.9179 49.7449 14.835C49.9142 14.7469 50.1057 14.6084 50.3192 14.4196C50.5368 14.2255 50.7537 13.9887 50.9699 13.7092C51.7532 12.6969 51.9829 11.8716 51.6591 11.2333C51.5751 11.0587 51.4736 10.9338 51.3547 10.8587L49.9864 9.80007L46.939 13.7388L48.3073 14.7975Z" fill="white"/>
<circle cx="22.0371" cy="11" r="1" fill="white"/>
<path d="M3.99294 37.6421L3.76543 36.0078L3.38625 33.2841L3.79233 33.2276L4.17152 35.9513L12.8677 34.7407L13.0952 36.3749L4.39903 37.5855L4.77821 40.3093L4.37213 40.3658L3.99294 37.6421Z" fill="white"/>
<path d="M12.8523 28.9478C12.8436 28.9868 12.8305 29.0454 12.8131 29.1235C12.7957 29.2016 12.7364 29.3454 12.635 29.5551C12.5416 29.7597 12.4236 29.9519 12.2811 30.1319C12.1465 30.3068 11.941 30.4933 11.6647 30.6912C11.3963 30.8842 11.0896 31.0344 10.7447 31.1419C10.3997 31.2495 9.95964 31.3085 9.42453 31.3191C8.89088 31.3231 8.30196 31.2534 7.65775 31.1098C7.15671 30.9982 6.70268 30.8595 6.29566 30.6936C5.88865 30.5278 5.55576 30.3512 5.297 30.1638C5.03173 29.9749 4.79936 29.7763 4.5999 29.5679C4.40044 29.3595 4.25196 29.1523 4.15446 28.9461C4.05696 28.74 3.97898 28.5382 3.92052 28.3408C3.85555 28.1419 3.82095 27.96 3.8167 27.7951C3.8139 27.6238 3.81579 27.4773 3.82237 27.3558C3.8304 27.2279 3.84238 27.1281 3.85833 27.0565L3.88226 26.9491C3.89241 26.9036 3.90545 26.845 3.9214 26.7734C3.9388 26.6954 3.99818 26.5515 4.09953 26.3419C4.19437 26.1308 4.31235 25.9385 4.45345 25.765C4.5895 25.5836 4.79496 25.3972 5.06985 25.2057C5.33968 25.0063 5.64708 24.8528 5.99206 24.7452C6.33704 24.6377 6.77636 24.5819 7.31001 24.5779C7.84511 24.5673 8.43151 24.6331 9.06921 24.7752C11.1059 25.229 12.339 26.1014 12.7686 27.3924C12.9461 27.9442 12.974 28.4627 12.8523 28.9478ZM4.30196 27.0427C4.28676 27.0802 4.27443 27.1356 4.26499 27.2086C4.257 27.2751 4.30176 27.4114 4.39926 27.6176C4.4917 27.8158 4.64959 28.0114 4.87292 28.2046C5.09119 28.3899 5.47432 28.6016 6.02229 28.8398C6.56376 29.0766 7.23143 29.2834 8.0253 29.4603C10.1011 29.9228 11.4706 29.8762 12.134 29.3205C12.3192 29.1637 12.4188 29.0083 12.4326 28.8543C12.4492 28.8102 12.4583 28.7541 12.4598 28.6862C12.4692 28.6131 12.4277 28.4775 12.3353 28.2794C12.2443 28.0747 12.0864 27.879 11.8616 27.6923C11.6448 27.5005 11.2657 27.2863 10.7242 27.0495C10.1762 26.8113 9.50529 26.6038 8.71142 26.4269C7.91105 26.2486 7.21295 26.1476 6.61713 26.1242C6.02131 26.1007 5.58309 26.1362 5.30247 26.2308C5.02185 26.3254 4.7998 26.433 4.63631 26.5537C4.46632 26.6729 4.36647 26.7838 4.33676 26.8865L4.30196 27.0427Z" fill="white"/>
<path d="M11.2386 14.0088C11.6194 13.9182 12.0013 13.9043 12.384 13.9671C12.776 14.0281 13.1412 14.1714 13.4796 14.3969C13.8124 14.6187 14.0852 14.9007 14.2979 15.2427C14.5031 15.5718 14.6344 15.9278 14.6918 16.3105C14.8231 17.1111 14.6559 17.8609 14.19 18.5599L13.2305 19.9994L16.0513 21.8796L15.1418 23.2442L7.49473 18.1472L8.1159 17.2153L8.10758 17.2097L9.35548 15.3375C9.82136 14.6385 10.4491 14.1956 11.2386 14.0088ZM13.8488 18.3325C13.8599 18.3158 13.8747 18.2936 13.8932 18.2659C13.9154 18.2326 13.9413 18.1697 13.9708 18.0773C14.0041 17.9793 14.0244 17.8767 14.0318 17.7694C14.0392 17.6622 14.0226 17.5309 13.9819 17.3756C13.9449 17.2147 13.8792 17.0548 13.7849 16.8958C13.685 16.7331 13.5334 16.5519 13.33 16.3522C13.121 16.1489 12.8696 15.9492 12.5756 15.7532C11.5105 15.0433 10.671 14.8724 10.0572 15.2404C9.88892 15.3365 9.77152 15.4466 9.70496 15.5704L8.74547 17.01L12.8893 19.772L13.8488 18.3325Z" fill="white"/>
<circle cx="13.1531" cy="47.1176" r="1" transform="rotate(-82.8131 13.1531 47.1176)" fill="white"/>
<path d="M61.821 27.3298L62.0273 28.9668L62.3712 31.6952L61.9644 31.7465L61.6205 29.0181L52.9095 30.1161L52.7031 28.4791L61.4142 27.3811L61.0703 24.6526L61.4771 24.6014L61.821 27.3298Z" fill="white"/>
<path d="M53.2618 35.222C53.2707 35.183 53.2841 35.1245 53.3019 35.0465C53.3198 34.9685 53.3799 34.825 53.4825 34.6159C53.577 34.4119 53.696 34.2203 53.8396 34.0411C53.9752 33.8669 54.1817 33.6816 54.4591 33.4852C54.7286 33.2938 55.0361 33.1453 55.3817 33.0397C55.7272 32.934 56.1676 32.8775 56.7027 32.8699C57.2364 32.8688 57.8249 32.9419 58.4683 33.089C58.9687 33.2035 59.422 33.3447 59.8281 33.5128C60.2342 33.6809 60.5661 33.8594 60.8238 34.0483C61.088 34.2386 61.3192 34.4385 61.5175 34.648C61.7158 34.8575 61.8631 35.0656 61.9595 35.2722C62.0558 35.4789 62.1327 35.6811 62.19 35.8789C62.2539 36.0782 62.2875 36.2602 62.2908 36.4251C62.2926 36.5965 62.2899 36.7429 62.2827 36.8644C62.2739 36.9923 62.2614 37.092 62.2451 37.1635L62.2205 37.2707C62.2101 37.3162 62.1967 37.3747 62.1804 37.4462C62.1626 37.5242 62.1024 37.6677 61.9999 37.8768C61.9038 38.0873 61.7848 38.279 61.6427 38.4516C61.5057 38.6323 61.2992 38.8176 61.0232 39.0075C60.7523 39.2054 60.444 39.3572 60.0984 39.4628C59.7529 39.5684 59.3132 39.6218 58.7796 39.6228C58.2444 39.6304 57.6584 39.5613 57.0215 39.4157C54.9874 38.9505 53.7591 38.0712 53.3368 36.7779C53.1624 36.2251 53.1373 35.7064 53.2618 35.222ZM61.8014 37.1749C61.8168 37.1374 61.8294 37.0821 61.8392 37.0091C61.8476 36.9427 61.8036 36.8061 61.7073 36.5994C61.6159 36.4007 61.4591 36.2042 61.2369 36.0097C61.0197 35.8233 60.6377 35.6094 60.0911 35.3681C59.5509 35.1284 58.8844 34.9178 58.0916 34.7365C56.0184 34.2624 54.6486 34.3013 53.9821 34.8533C53.796 35.0091 53.6957 35.1639 53.681 35.3179C53.6641 35.3619 53.6547 35.4179 53.6528 35.4858C53.643 35.5588 53.6837 35.6946 53.7751 35.8933C53.8649 36.0985 54.0217 36.2951 54.2454 36.483C54.4612 36.676 54.8391 36.8923 55.3793 37.1321C55.9259 37.3734 56.5957 37.5847 57.3885 37.766C58.1879 37.9488 58.8854 38.0536 59.4811 38.0804C60.0768 38.1072 60.5152 38.0741 60.7963 37.9811C61.0775 37.8881 61.3001 37.7817 61.4643 37.662C61.6349 37.5437 61.7354 37.4333 61.7657 37.3308L61.8014 37.1749Z" fill="white"/>
<path d="M56.7608 48.6751C56.3964 48.8182 56.0203 48.8855 55.6325 48.877C55.2358 48.8715 54.8542 48.7808 54.4875 48.6049C54.1269 48.4319 53.8173 48.191 53.5588 47.8821C53.3094 47.585 53.1295 47.251 53.0191 46.8801C52.7768 46.1058 52.8374 45.34 53.2007 44.5826L53.949 43.0228L50.8925 41.5565L51.6019 40.0779L59.8877 44.0529L59.4033 45.0627L59.4123 45.067L58.4391 47.0956C58.0758 47.853 57.5164 48.3795 56.7608 48.6751ZM53.5704 44.76C53.5617 44.778 53.5502 44.802 53.5358 44.8321C53.5185 44.8682 53.5017 44.934 53.4853 45.0297C53.4661 45.1314 53.4604 45.2359 53.4681 45.3431C53.4758 45.4503 53.5107 45.578 53.5727 45.726C53.6319 45.8801 53.7193 46.0293 53.835 46.1735C53.9567 46.3206 54.1322 46.4787 54.3616 46.6479C54.597 46.82 54.874 46.9825 55.1926 47.1353C56.3466 47.6889 57.2018 47.7406 57.758 47.2902C57.9111 47.1714 58.0119 47.046 58.0604 46.914L58.8087 45.3542L54.3187 43.2002L53.5704 44.76Z" fill="white"/>
<circle cx="55.1501" cy="20.1125" r="1" transform="rotate(97.03 55.1501 20.1125)" fill="white"/>
<path d="M36.5706 62.793L34.9348 63.009L32.2084 63.3691L32.1548 62.9626L34.8811 62.6026L33.7316 53.8981L35.3674 53.6821L36.5169 62.3865L39.2432 62.0265L39.2969 62.433L36.5706 62.793Z" fill="white"/>
<path d="M28.2761 52.9474C28.3157 52.9535 28.375 52.9625 28.4541 52.9746C28.5332 52.9867 28.6807 53.0362 28.8967 53.1231C29.1072 53.2024 29.307 53.3071 29.4962 53.4372C29.6798 53.5596 29.8798 53.752 30.096 54.0143C30.3066 54.269 30.4773 54.5648 30.6079 54.9017C30.7386 55.2386 30.8273 55.6736 30.8741 56.2068C30.9142 56.7389 30.8845 57.3312 30.7849 57.9837C30.7074 58.4911 30.5998 58.9535 30.4619 59.3708C30.324 59.7881 30.1703 60.1322 30.0008 60.4031C29.8304 60.6805 29.6479 60.9258 29.4535 61.1389C29.2592 61.352 29.0624 61.5142 28.8634 61.6254C28.6643 61.7367 28.4683 61.8281 28.2752 61.8998C28.0812 61.9781 27.9021 62.0249 27.7379 62.0403C27.5671 62.0547 27.4209 62.0628 27.2992 62.0644C27.171 62.0651 27.0706 62.0599 26.9981 62.0488L26.8894 62.0322C26.8433 62.0252 26.7839 62.0161 26.7114 62.0051C26.6324 61.993 26.4848 61.9435 26.2688 61.8566C26.0518 61.7762 25.8519 61.6715 25.6693 61.5425C25.4791 61.419 25.2792 61.2267 25.0695 60.9654C24.8523 60.7097 24.6783 60.4134 24.5477 60.0765C24.417 59.7396 24.3316 59.305 24.2915 58.7729C24.2447 58.2397 24.2706 57.6502 24.3692 57.0044C24.6841 54.9416 25.471 53.6522 26.7299 53.1363C27.2685 52.9218 27.7839 52.8588 28.2761 52.9474ZM26.9543 61.6071C26.9928 61.6198 27.0488 61.6283 27.1223 61.6328C27.1892 61.6363 27.3222 61.5824 27.5213 61.4711C27.7128 61.3655 27.8973 61.1947 28.0749 60.9588C28.245 60.7285 28.4303 60.3319 28.6308 59.7691C28.8304 59.2128 28.9915 58.5327 29.1143 57.7287C29.4352 55.6263 29.296 54.2631 28.6966 53.6388C28.5276 53.4647 28.3658 53.3759 28.2112 53.3725C28.1661 53.3589 28.1096 53.3536 28.0417 53.3568C27.9682 53.3523 27.8357 53.4029 27.6442 53.5085C27.4462 53.6132 27.2616 53.7839 27.0906 54.0208C26.914 54.2501 26.7259 54.6429 26.5263 55.1992C26.3258 55.762 26.1641 56.4455 26.0414 57.2495C25.9176 58.0601 25.8642 58.7634 25.8811 59.3595C25.8981 59.9555 25.9632 60.3903 26.0766 60.6639C26.1899 60.9375 26.3123 61.1517 26.4438 61.3067C26.5742 61.4682 26.6917 61.5603 26.7961 61.583L26.9543 61.6071Z" fill="white"/>
<path d="M15.4948 56.7192C15.3339 56.3623 15.2481 55.99 15.2376 55.6022C15.2234 55.2058 15.2952 54.8201 15.4528 54.4452C15.6078 54.0765 15.8331 53.7554 16.1289 53.482C16.4133 53.2182 16.738 53.0221 17.103 52.8935C17.8644 52.6133 18.6323 52.636 19.4067 52.9615L21.0015 53.6319L22.3152 50.5068L23.827 51.1423L20.2658 59.6142L19.2333 59.1802L19.2294 59.1894L17.1552 58.3175C16.3808 57.992 15.8274 57.4592 15.4948 56.7192ZM19.2478 53.3394C19.2293 53.3317 19.2048 53.3214 19.174 53.3084C19.1372 53.2929 19.0705 53.2794 18.9742 53.2678C18.8716 53.2537 18.767 53.2531 18.6603 53.2661C18.5536 53.2791 18.4278 53.3202 18.283 53.3895C18.132 53.4562 17.9874 53.5509 17.849 53.6735C17.7081 53.8023 17.5588 53.9854 17.4012 54.2229C17.2409 54.4665 17.0923 54.7511 16.9554 55.0769C16.4594 56.2569 16.45 57.1135 16.9273 57.6468C17.0535 57.7939 17.1837 57.8884 17.318 57.9303L18.9128 58.6007L20.8426 54.0099L19.2478 53.3394Z" fill="white"/>
<circle cx="45.4474" cy="52.4137" r="1" transform="rotate(-133.809 45.4474 52.4137)" fill="white"/>
<circle cx="32.5371" cy="33.5" r="18" stroke="white"/>
<circle cx="33.0371" cy="33" r="32.5" stroke="white"/>
</svg>
