<svg width="47" height="38" viewBox="0 0 47 38" fill="none" xmlns="http://www.w3.org/2000/svg">
<path d="M47 4.51102C45.2404 5.28507 43.3745 5.79357 41.4639 6.01969C43.477 4.82086 44.9831 2.93524 45.7019 0.7141C43.8112 1.833 41.7383 2.61714 39.5802 3.04132C38.1289 1.49728 36.2054 0.473269 34.1086 0.128478C32.0117 -0.216313 29.8591 0.137434 27.9853 1.13473C26.1114 2.13202 24.6215 3.71697 23.747 5.64319C22.8725 7.56942 22.6624 9.72898 23.1495 11.7861C19.315 11.5954 15.5636 10.6047 12.1391 8.87853C8.71454 7.15234 5.6934 4.72922 3.27183 1.76651C2.41477 3.23036 1.96438 4.89444 1.96679 6.58831C1.96679 9.91291 3.67072 12.85 6.25544 14.5696C4.72447 14.5216 3.22721 14.1105 1.88839 13.3705V13.4874C1.88832 15.702 2.65858 17.8484 4.06853 19.5626C5.47848 21.2769 7.44131 22.4534 9.62412 22.8926C8.20296 23.276 6.71266 23.3324 5.26629 23.0577C5.88174 24.9639 7.08139 26.631 8.69721 27.8254C10.313 29.0197 12.2641 29.6816 14.2771 29.7183C12.2765 31.2808 9.98585 32.4357 7.53607 33.1171C5.08628 33.7985 2.52544 33.993 0 33.6895C4.40791 36.5082 9.53905 38.0047 14.7797 38C32.52 38 42.2179 23.3878 42.2179 10.7154C42.2179 10.3027 42.2087 9.88539 42.1902 9.47498C44.0773 8.11845 45.706 6.43598 47 4.51102Z" fill="white"/>
</svg>
