<svg width="101" height="84" viewBox="0 0 101 84" fill="none" xmlns="http://www.w3.org/2000/svg">
<path d="M27.5687 10.1586C30.9457 12.5181 31.9197 17.2726 29.5603 20.6496C27.9697 22.9261 25.2705 23.9955 22.6455 23.728M27.632 10.068L32.5703 3L98.1908 48.8481L93.2524 55.9162M93.04 55.9025C91.9822 55.1634 90.7848 54.7266 89.5666 54.5789M84.4956 68.1318C82.3987 66.6667 81.2283 64.2783 81.2071 61.8696M84.3914 68.2809L82.3588 71.1901" stroke="#52E0FF" stroke-width="3" stroke-linecap="round"/>
<path d="M49.3086 17.8008L38.5315 33.2255" stroke="#52E0FF" stroke-width="3" stroke-dasharray="8 8"/>
<path d="M50.6602 15.8613L48.2636 19.2915" stroke="#52E0FF" stroke-width="3"/>
<path d="M5.16395 46.0877C9.03658 47.4927 13.486 45.5544 14.891 41.6818C16.2961 37.8092 14.1247 33.4687 10.2521 32.0637M10.2897 31.9598L13.2305 23.8545L88.4813 51.1565L85.5406 59.2619M5.08673 46.3005L2.06145 54.6389L77.0792 82.05L80.1817 73.4987M85.3319 59.3037C81.4593 57.8986 77.0098 59.837 75.6048 63.7096C74.1997 67.5822 76.3711 71.9227 80.2438 73.3277" stroke="#52E0FF" stroke-width="3" stroke-linecap="round"/>
<path d="M33.2266 33.8184L23.7949 59.8141" stroke="#52E0FF" stroke-width="3" stroke-dasharray="8 8"/>
<path d="M34.0352 31.5957L32.608 35.5293M24.4174 58.1045L22.9282 62.2091" stroke="#52E0FF" stroke-width="3"/>
<path fill-rule="evenodd" clip-rule="evenodd" d="M52.5006 46.2884C48.7118 46.8587 41.2019 49.1468 41.4727 53.7369L49.0916 53.0161C48.1312 54.507 45.6972 57.5156 43.6447 57.6228C43.9743 58.2264 45.7189 59.537 50.0608 59.9506C51.0731 60.0471 51.6455 65.5951 51.84 67.4802C51.8514 67.5902 51.8614 67.6877 51.8702 67.7709L64.9564 58.3848L63.8105 55.94L65.2705 51.9158L61.8592 51.9793L63.3626 47.8354L59.6981 48.5969L59.5509 45.0003L56.9749 46.7638L55.2735 43.4484L52.5006 46.2884ZM50.5222 51.2125C50.9947 51.3839 51.5166 51.1399 51.688 50.6674C51.8595 50.1949 51.6154 49.673 51.143 49.5016C50.6705 49.3301 50.1485 49.5742 49.9771 50.0466C49.8057 50.5191 50.0497 51.0411 50.5222 51.2125Z" fill="#52E0FF"/>
<path d="M42.6906 53.0307C42.7066 53.5325 43.0462 54.0091 43.5773 54.2018C44.2601 54.4495 45.0008 54.1343 45.2318 53.4978C45.3053 53.2952 45.3183 53.0844 45.2798 52.8833" stroke="#52E0FF"/>
</svg>
