<svg width="24" height="24" viewBox="0 0 24 24" fill="none" xmlns="http://www.w3.org/2000/svg">
<path d="M15.75 5.25001C15.75 5.0511 15.829 4.86033 15.9697 4.71968C16.1103 4.57903 16.3011 4.50001 16.5 4.50001H18V3.00001C18 2.8011 18.079 2.61033 18.2197 2.46968C18.3603 2.32903 18.5511 2.25001 18.75 2.25001C18.9489 2.25001 19.1397 2.32903 19.2804 2.46968C19.421 2.61033 19.5 2.8011 19.5 3.00001V4.50001H21C21.1989 4.50001 21.3897 4.57903 21.5304 4.71968C21.671 4.86033 21.75 5.0511 21.75 5.25001C21.75 5.44892 21.671 5.63969 21.5304 5.78034C21.3897 5.92099 21.1989 6.00001 21 6.00001H19.5V7.50001C19.5 7.69892 19.421 7.88969 19.2804 8.03034C19.1397 8.17099 18.9489 8.25001 18.75 8.25001C18.5511 8.25001 18.3603 8.17099 18.2197 8.03034C18.079 7.88969 18 7.69892 18 7.50001V6.00001H16.5C16.3011 6.00001 16.1103 5.92099 15.9697 5.78034C15.829 5.63969 15.75 5.44892 15.75 5.25001ZM21.615 10.3763C21.9577 12.413 21.6441 14.506 20.7197 16.353C19.7953 18.2 18.3079 19.7054 16.4721 20.6518C14.6363 21.5983 12.5473 21.9369 10.5065 21.6187C8.4658 21.3005 6.57899 20.342 5.11854 18.8815C3.65808 17.421 2.69955 15.5342 2.38135 13.4935C2.06314 11.4528 2.40172 9.36371 3.3482 7.52795C4.29468 5.69218 5.80008 4.20471 7.64706 3.2803C9.49403 2.35589 11.587 2.04237 13.6238 2.38501C13.8185 2.41944 13.9917 2.52935 14.1057 2.69083C14.2198 2.85232 14.2655 3.05231 14.2329 3.24731C14.2003 3.4423 14.092 3.61653 13.9315 3.73209C13.7711 3.84766 13.5716 3.8952 13.3763 3.86439C12.1933 3.66538 10.9811 3.72655 9.82416 4.04364C8.6672 4.36073 7.59324 4.92613 6.67701 5.70048C5.76078 6.47483 5.0243 7.43954 4.51881 8.52746C4.01332 9.61538 3.75097 10.8004 3.75002 12C3.74825 14.0196 4.49051 15.969 5.83502 17.4759C6.67149 16.2638 7.84767 15.3261 9.21565 14.7806C8.48082 14.2019 7.94461 13.4085 7.68159 12.5109C7.41857 11.6132 7.44181 10.6559 7.74807 9.77209C8.05434 8.88826 8.62841 8.12184 9.39046 7.57941C10.1525 7.03697 11.0646 6.74549 12 6.74549C12.9354 6.74549 13.8475 7.03697 14.6096 7.57941C15.3716 8.12184 15.9457 8.88826 16.252 9.77209C16.5582 10.6559 16.5815 11.6132 16.3185 12.5109C16.0554 13.4085 15.5192 14.2019 14.7844 14.7806C16.1524 15.3261 17.3286 16.2638 18.165 17.4759C19.5095 15.969 20.2518 14.0196 20.25 12C20.2501 11.5389 20.2118 11.0786 20.1356 10.6238C20.1184 10.5262 20.1206 10.4262 20.1423 10.3295C20.1639 10.2328 20.2044 10.1414 20.2616 10.0604C20.3188 9.97951 20.3914 9.91072 20.4753 9.85802C20.5592 9.80533 20.6527 9.76978 20.7504 9.75343C20.8482 9.73709 20.9481 9.74026 21.0446 9.76278C21.1411 9.78529 21.2322 9.8267 21.3126 9.88461C21.393 9.94252 21.4611 10.0158 21.513 10.1002C21.5649 10.1846 21.5996 10.2784 21.615 10.3763ZM12 14.25C12.5934 14.25 13.1734 14.0741 13.6667 13.7444C14.1601 13.4148 14.5446 12.9462 14.7717 12.3981C14.9987 11.8499 15.0581 11.2467 14.9424 10.6647C14.8266 10.0828 14.5409 9.54825 14.1213 9.12869C13.7018 8.70913 13.1672 8.42341 12.5853 8.30765C12.0034 8.1919 11.4002 8.25131 10.852 8.47837C10.3038 8.70543 9.83526 9.08995 9.50562 9.5833C9.17597 10.0766 9.00002 10.6567 9.00002 11.25C9.00003 12.0457 9.3161 12.8087 9.8787 13.3713C10.4413 13.9339 11.2044 14.25 12 14.25ZM12 20.25C13.8313 20.2519 15.6106 19.6414 17.055 18.5156C16.5125 17.6671 15.765 16.9688 14.8816 16.4851C13.9982 16.0014 13.0072 15.7478 12 15.7478C10.9928 15.7478 10.0019 16.0014 9.11845 16.4851C8.23503 16.9688 7.48759 17.6671 6.94502 18.5156C8.38943 19.6414 10.1687 20.2519 12 20.25Z" fill="white"/>
</svg>
