<svg width="200" height="186" viewBox="0 0 200 186" fill="none" xmlns="http://www.w3.org/2000/svg">
<path d="M103.976 23.456L110.864 3.992H111.92L104.504 24.92L104.12 26.024H103.088H100.712L92.9122 3.992H97.0882L103.976 23.456Z" fill="black"/>
<path d="M119.719 28.8108L125.287 7.46932L129.096 8.46305L123.527 29.8045L119.719 28.8108Z" fill="black"/>
<path d="M157.773 24.9596L149.276 19.5806L144.565 27.0226L153.061 32.4016L152.535 33.233L144.038 27.854L138.531 36.5532L147.027 41.9322L146.501 42.7636L138.005 37.3846L134.679 35.2792L146.477 16.6438L149.803 18.7492L149.79 18.7695L158.286 24.1485L157.773 24.9596Z" fill="black"/>
<path d="M160.408 59.6272L179.955 53.6691L180.457 54.5434L159.05 61.0703L158.934 61.1092L158.683 60.6721L156.916 57.5912L164.344 49.7044L155.121 52.5337L154.181 52.8241L153.93 52.3869L152.377 49.6807L168.107 33.0186L170.162 36.5991L156.479 51.0905L165.714 48.2821L172.646 40.9291L174.7 44.5096L160.408 59.6272Z" fill="black"/>
<path d="M184.372 73.533L165.163 75.8134L165.047 74.8363L186.925 72.239L187.041 73.2162L187.417 76.3859L168.731 84.0905L188.699 87.1821L188.702 87.2059L188.758 87.6826L189.169 91.1383L167.266 93.7384L166.8 89.806L185.175 87.6247L166.979 84.806L166.191 84.682L166.132 84.1815L165.775 81.1786L184.372 73.533Z" fill="black"/>
<path d="M164.595 107.91C164.63 107.786 164.702 107.617 164.811 107.402C164.905 107.182 165.138 106.777 165.511 106.187C165.889 105.583 166.311 105.041 166.776 104.561C167.233 104.06 167.87 103.566 168.686 103.078C169.487 102.584 170.347 102.238 171.267 102.038C172.178 101.817 173.295 101.788 174.617 101.95C175.93 102.092 177.323 102.476 178.795 103.102C179.944 103.591 180.96 104.145 181.844 104.765C182.728 105.384 183.43 106.022 183.951 106.679C184.463 107.314 184.887 107.972 185.223 108.654C185.573 109.342 185.793 110.01 185.883 110.657C185.979 111.289 186.028 111.91 186.03 112.519C186.052 113.12 186.008 113.674 185.896 114.183C185.804 114.683 185.706 115.12 185.6 115.492C185.493 115.864 185.396 116.153 185.309 116.359L185.177 116.668C185.121 116.801 185.046 116.977 184.952 117.198C184.858 117.419 184.614 117.828 184.22 118.426C183.848 119.015 183.429 119.55 182.964 120.03C182.514 120.517 181.88 121.004 181.064 121.491C180.263 121.985 179.407 122.342 178.496 122.563C177.576 122.763 176.459 122.792 175.146 122.65C173.818 122.503 172.425 122.119 170.968 121.498C169.804 121.003 168.781 120.446 167.897 119.827C167.019 119.192 166.324 118.557 165.812 117.922C165.285 117.281 164.854 116.619 164.518 115.937C164.182 115.255 163.966 114.598 163.87 113.966C163.765 113.313 163.712 112.682 163.711 112.072C163.694 111.457 163.739 110.902 163.845 110.408C163.936 109.908 164.035 109.472 164.141 109.1C164.247 108.727 164.344 108.438 164.432 108.232L164.595 107.91ZM184.25 116.274C184.281 116.2 184.325 116.097 184.381 115.964C184.438 115.832 184.493 115.56 184.546 115.148C184.606 114.721 184.612 114.298 184.565 113.878C184.524 113.443 184.363 112.922 184.082 112.316C183.807 111.695 183.416 111.102 182.908 110.538C182.392 109.954 181.648 109.333 180.675 108.676C179.688 108.012 178.532 107.398 177.207 106.835C176.147 106.384 175.147 106.036 174.207 105.793C173.274 105.535 172.458 105.388 171.761 105.352C171.055 105.295 170.399 105.303 169.794 105.376C169.196 105.434 168.691 105.558 168.28 105.748C167.86 105.918 167.481 106.113 167.143 106.334C166.812 106.541 166.55 106.769 166.357 107.017C166.156 107.245 165.99 107.452 165.858 107.639C165.726 107.827 165.632 107.986 165.576 108.119L165.5 108.296C165.469 108.369 165.425 108.472 165.369 108.605C165.312 108.737 165.254 109.017 165.195 109.444C165.135 109.87 165.128 110.294 165.176 110.714C165.223 111.134 165.384 111.654 165.659 112.275C165.94 112.882 166.338 113.477 166.855 114.062C167.356 114.641 168.1 115.262 169.087 115.925C170.06 116.582 171.216 117.196 172.556 117.766C173.601 118.211 174.59 118.562 175.524 118.82C176.463 119.064 177.286 119.214 177.992 119.271C178.69 119.307 179.338 119.296 179.937 119.238C180.542 119.165 181.047 119.04 181.452 118.865C181.878 118.681 182.256 118.486 182.588 118.279C182.925 118.058 183.187 117.83 183.374 117.596C183.581 117.354 183.751 117.139 183.883 116.952C184.021 116.75 184.115 116.59 184.165 116.472L184.25 116.274Z" fill="black"/>
<path d="M143.057 168.016L151.481 162.525L146.672 155.146L138.247 160.637L137.71 159.813L146.134 154.322L140.512 145.696L132.088 151.187L131.551 150.363L139.975 144.872L143.273 142.723L155.316 161.2L152.019 163.349L152.005 163.329L143.581 168.82L143.057 168.016Z" fill="black"/>
<path d="M156.991 139.919C155.418 140.224 154.068 139.915 152.942 138.992L148.968 135.738L151.796 132.284L155.77 135.538C156.674 136.278 157.767 136.522 159.049 136.269C160.331 136.017 161.429 135.333 162.341 134.219L164.135 132.028L156.875 126.083L159.369 123.037L176.433 137.012L170.852 143.826C169.606 145.349 168.09 146.29 166.307 146.649C165.418 146.852 164.549 146.864 163.701 146.687C162.796 146.504 161.985 146.119 161.267 145.531C160.549 144.943 160.011 144.223 159.654 143.372C159.325 142.586 159.166 141.732 159.177 140.81C159.172 140.185 159.252 139.569 159.419 138.961C159.429 138.949 159.438 138.925 159.446 138.89C159.021 139.183 158.567 139.421 158.085 139.606C157.724 139.744 157.359 139.849 156.991 139.919ZM161.83 136.624C161.81 136.648 161.774 136.692 161.724 136.754C161.673 136.815 161.595 136.948 161.49 137.152C161.388 137.378 161.314 137.607 161.269 137.839C161.224 138.071 161.213 138.362 161.236 138.712C161.272 139.072 161.371 139.432 161.531 139.791C161.694 140.173 161.964 140.601 162.341 141.075C162.718 141.549 163.191 142.019 163.761 142.486C164.343 142.962 164.903 143.338 165.442 143.614C165.971 143.903 166.438 144.078 166.842 144.14C167.236 144.215 167.608 144.24 167.958 144.217C168.298 144.206 168.581 144.138 168.807 144.013C169.046 143.898 169.245 143.782 169.404 143.664C169.575 143.556 169.701 143.452 169.782 143.353L169.889 143.223L173.067 139.342L165.008 132.743L161.83 136.624Z" fill="black"/>
<path d="M65 89.7881C84.9908 99.13 110.188 96.5441 134.117 90.6274M134.117 90.6274C123.161 88.7893 110.831 83.7957 113.416 79.8249M134.117 90.6274C126.903 92.7576 118.404 104.806 118.125 107.406" stroke="black" stroke-width="3"/>
<path d="M100.932 159.232L94.6931 178.913L93.6377 178.948L100.356 157.786L100.703 156.67L101.735 156.636L104.109 156.557L112.635 178.318L108.462 178.457L100.932 159.232Z" fill="black"/>
<path d="M83.7507 153.369L78.8926 174.883L75.0533 174.016L79.9114 152.502L83.7507 153.369Z" fill="black"/>
<path d="M45.8792 158.512L54.5493 163.606L59.0115 156.012L50.3414 150.918L50.8399 150.069L59.51 155.164L64.726 146.287L56.0559 141.192L56.5544 140.344L65.2245 145.438L68.618 147.432L57.4443 166.449L54.0508 164.455L54.0629 164.434L45.3929 159.339L45.8792 158.512Z" fill="black"/>
<path d="M43.0961 124.951L23.757 131.553L23.2266 130.696L44.4054 123.463L44.5201 123.421L44.7853 123.849L46.6541 126.87L39.4913 134.998L48.6157 131.865L49.5457 131.544L49.8109 131.972L51.4525 134.625L36.2832 151.8L34.1113 148.289L47.3064 133.352L38.1694 136.465L31.4848 144.044L29.3129 140.534L43.0961 124.951Z" fill="black"/>
<path d="M18.6509 111.814L37.7739 108.898L37.9222 109.871L16.142 113.192L15.9936 112.219L15.5125 109.064L33.9329 100.744L13.8737 98.316L13.8701 98.2922L13.7977 97.8177L13.2731 94.3775L35.0771 91.0528L35.674 94.9676L17.3815 97.7568L35.6601 99.9709L36.4518 100.069L36.5278 100.567L36.9836 103.556L18.6509 111.814Z" fill="black"/>
<path d="M37.6576 75.3443C37.6406 75.4722 37.5938 75.6501 37.5174 75.8782C37.4565 76.1103 37.2844 76.5449 37.0014 77.1819C36.7142 77.8343 36.3754 78.4319 35.9847 78.9745C35.6055 79.5366 35.0476 80.1179 34.3109 80.7185C33.5897 81.3232 32.7886 81.791 31.9076 82.1221C31.038 82.4728 29.9375 82.6635 28.606 82.6943C27.2859 82.7447 25.8521 82.5667 24.3045 82.1603C23.0975 81.8433 22.0117 81.4424 21.0472 80.9575C20.0827 80.4727 19.2954 79.9433 18.6851 79.3695C18.0862 78.8152 17.5712 78.2251 17.1401 77.599C16.6935 76.9689 16.3788 76.3404 16.1961 75.7134C16.0093 75.1019 15.8709 74.4949 15.781 73.8923C15.6716 73.3011 15.6355 72.7457 15.6726 72.2261C15.6903 71.7179 15.7247 71.2721 15.7758 70.8885C15.8269 70.5049 15.8809 70.2047 15.9378 69.9881L16.0231 69.6631C16.0597 69.5238 16.1085 69.3381 16.1694 69.106C16.2304 68.8739 16.4122 68.4336 16.7148 67.7852C16.9978 67.1482 17.3347 66.5584 17.7253 66.0158C18.1004 65.4692 18.6564 64.8956 19.3931 64.295C20.1143 63.6903 20.9097 63.2127 21.7793 62.8621C22.6602 62.531 23.7608 62.3402 25.0809 62.2899C26.4164 62.2436 27.8502 62.4216 29.3823 62.8239C30.6048 63.1449 31.6983 63.5479 32.6628 64.0327C33.6232 64.5331 34.4029 65.0604 35.0017 65.6147C35.6161 66.173 36.1388 66.7652 36.5699 67.3912C37.0011 68.0173 37.31 68.636 37.4968 69.2475C37.6951 69.8786 37.8391 70.4954 37.929 71.098C38.0344 71.7046 38.0705 72.26 38.0374 72.7642C38.0197 73.2723 37.9854 73.7182 37.9343 74.1018C37.8832 74.4854 37.8292 74.7855 37.7723 75.0022L37.6576 75.3443ZM16.9981 69.9191C16.9777 69.9965 16.9493 70.1048 16.9127 70.2441C16.8761 70.3834 16.8612 70.6607 16.868 71.076C16.8706 71.5068 16.9258 71.9266 17.0335 72.3354C17.1372 72.7596 17.372 73.2514 17.7379 73.8106C18.0998 74.3854 18.5728 74.9149 19.157 75.3992C19.7526 75.903 20.579 76.4095 21.6363 76.9187C22.7092 77.432 23.9419 77.8716 25.3347 78.2373C26.4489 78.5299 27.4886 78.7285 28.4537 78.833C29.4147 78.953 30.243 78.9803 30.9384 78.9148C31.6453 78.8688 32.2926 78.7659 32.8805 78.6059C33.4644 78.4615 33.946 78.2654 34.3253 78.0176C34.7161 77.7894 35.0625 77.5412 35.3645 77.2731C35.6624 77.0205 35.8887 76.7574 36.0433 76.4836C36.2093 76.2295 36.344 76.0002 36.4473 75.7957C36.5506 75.5912 36.6205 75.4194 36.6571 75.2801L36.7059 75.0944C36.7262 75.017 36.7546 74.9087 36.7912 74.7694C36.8278 74.6301 36.8447 74.3451 36.8421 73.9143C36.8394 73.4835 36.7842 73.0637 36.6765 72.6549C36.5688 72.2462 36.334 71.7544 35.9721 71.1796C35.6062 70.6203 35.1254 70.0888 34.5298 69.585C33.9497 69.0853 33.1233 68.5788 32.0505 68.0655C30.9931 67.5562 29.7604 67.1167 28.3521 66.7469C27.2534 66.4583 26.2235 66.2541 25.2624 66.134C24.2973 66.0295 23.4614 66.0002 22.7545 66.0462C22.0591 66.1117 21.4194 66.2167 20.8356 66.3611C20.2477 66.521 19.7661 66.7172 19.3908 66.9495C18.9959 67.1932 18.6495 67.4413 18.3516 67.6939C18.0496 67.962 17.8234 68.2252 17.6728 68.4834C17.5028 68.7531 17.3661 68.9901 17.2628 69.1946C17.1554 69.4145 17.0854 69.5864 17.0529 69.7102L16.9981 69.9191Z" fill="black"/>
<path d="M55.2624 17.0396L47.0246 22.8069L52.0761 30.0224L60.3139 24.2551L60.8782 25.0612L52.6404 30.8284L58.5453 39.2629L66.7831 33.4957L67.3474 34.3018L59.1096 40.069L55.8852 42.3263L43.2359 24.2581L46.4602 22.0008L46.474 22.0204L54.7119 16.2532L55.2624 17.0396Z" fill="black"/>
<path d="M43.3912 42.9507C44.9174 42.4638 46.294 42.6123 47.521 43.3962L51.8491 46.1613L49.4457 49.9231L45.1176 47.158C44.1333 46.5291 43.0193 46.4155 41.7755 46.817C40.5317 47.2185 39.5221 48.026 38.7468 49.2395L37.2221 51.626L45.13 56.6782L43.0109 59.9951L24.4244 48.1204L29.1665 40.6979C30.226 39.0395 31.6202 37.9271 33.349 37.3608C34.2086 37.0556 35.0696 36.9412 35.9322 37.0176C36.8524 37.0929 37.7035 37.3803 38.4855 37.8799C39.2676 38.3795 39.8861 39.031 40.3412 39.8344C40.7595 40.5764 41.0176 41.4057 41.1153 42.3226C41.194 42.9425 41.1861 43.564 41.0918 44.1872C41.0831 44.2007 41.077 44.2252 41.0732 44.2608C41.4616 43.9204 41.8843 43.6303 42.3412 43.3906C42.6839 43.2108 43.0339 43.0642 43.3912 42.9507ZM38.9721 46.7917C38.9893 46.7647 39.0195 46.7176 39.0626 46.6501C39.1056 46.5827 39.1672 46.4417 39.2474 46.2271C39.3227 45.9904 39.3691 45.7543 39.3867 45.5187C39.4043 45.2831 39.3809 44.9928 39.3165 44.6479C39.2386 44.2943 39.0987 43.9486 38.8968 43.6108C38.6901 43.2509 38.3717 42.8576 37.9417 42.431C37.5118 42.0045 36.9867 41.593 36.3665 41.1968C35.7328 40.7919 35.132 40.4841 34.5642 40.2732C34.005 40.0489 33.5211 39.9296 33.1125 39.9153C32.7125 39.8876 32.3401 39.906 31.9951 39.9704C31.6588 40.0213 31.3856 40.1221 31.1754 40.2727C30.9519 40.4146 30.7681 40.5536 30.6243 40.6895C30.467 40.8169 30.3539 40.9345 30.285 41.0423L30.1946 41.1839L27.494 45.4109L36.2716 51.0187L38.9721 46.7917Z" fill="black"/>
<circle cx="123.008" cy="163.008" r="3.00795" fill="black"/>
<circle cx="76.0079" cy="23.0079" r="3.00795" fill="black"/>
</svg>
